<?xml version="1.0" standalone="no"?>
<!DOCTYPE svg PUBLIC "-//W3C//DTD SVG 20010904//EN"
 "http://www.w3.org/TR/2001/REC-SVG-20010904/DTD/svg10.dtd">
<svg version="1.0" xmlns="http://www.w3.org/2000/svg"
 width="261.000000pt" height="261.000000pt" viewBox="0 0 261.000000 261.000000"
 preserveAspectRatio="xMidYMid meet">
<metadata>
Created by potrace 1.11, written by Peter Selinger 2001-2013
</metadata>
<g transform="translate(0.000000,261.000000) scale(0.100000,-0.100000)"
fill="#000000" stroke="none">
<path d="M1169 2596 c-2 -2 -29 -7 -59 -11 -255 -31 -528 -171 -728 -375 -167
-169 -296 -407 -337 -618 -21 -113 -27 -158 -29 -247 -17 -628 411 -1166 1034
-1301 128 -28 391 -26 525 4 468 103 836 445 967 897 163 561 -62 1151 -557
1463 -130 81 -316 151 -472 176 -75 12 -335 21 -344 12z m376 -50 c161 -34
316 -97 444 -179 164 -107 314 -266 410 -437 56 -98 110 -231 125 -306 3 -10
9 -39 15 -64 28 -126 32 -315 7 -456 -46 -266 -162 -490 -356 -684 -298 -299
-697 -420 -1135 -345 -76 13 -248 75 -335 121 -231 122 -425 322 -544 560 -43
87 -90 222 -101 287 -3 17 -10 57 -16 87 -16 79 -14 280 5 386 46 266 161 488
351 680 200 201 448 325 720 361 22 3 41 7 43 8 11 10 299 -5 367 -19z"/>
<path d="M1230 2352 c-484 -39 -869 -391 -955 -872 -17 -94 -12 -291 8 -385
98 -440 447 -761 889 -820 508 -68 1002 260 1138 755 28 99 31 125 35 250 4
138 -9 234 -47 350 -135 419 -521 709 -963 723 -38 1 -86 1 -105 -1z m245 -43
c354 -57 665 -319 784 -660 43 -122 53 -180 56 -314 11 -403 -205 -757 -570
-936 -532 -260 -1179 -2 -1388 553 -40 106 -59 207 -63 333 -5 218 51 415 168
588 226 333 614 500 1013 436z"/>
</g>
</svg>
